<mxfile host="app.diagrams.net" modified="2021-11-03T11:07:10.072Z" agent="5.0 (Macintosh; Intel Mac OS X 10_14_0) AppleWebKit/537.36 (KHTML, like Gecko) Chrome/95.0.4638.54 Safari/537.36" etag="p9mtV-MhLGEOPayWHSuk" version="15.6.6" type="github">
  <diagram id="E5W-uu2God22g7Ky9WZ-" name="Page-1">
    <mxGraphModel dx="1426" dy="742" grid="1" gridSize="10" guides="1" tooltips="1" connect="1" arrows="1" fold="1" page="1" pageScale="1" pageWidth="10200" pageHeight="10600" math="0" shadow="0">
      <root>
        <mxCell id="0" />
        <mxCell id="1" parent="0" />
        <mxCell id="YZNdHFCtToBKcQ6RWs2M-12" value="" style="edgeStyle=orthogonalEdgeStyle;rounded=0;orthogonalLoop=1;jettySize=auto;html=1;" parent="1" source="YZNdHFCtToBKcQ6RWs2M-1" target="YZNdHFCtToBKcQ6RWs2M-10" edge="1">
          <mxGeometry relative="1" as="geometry" />
        </mxCell>
        <mxCell id="YZNdHFCtToBKcQ6RWs2M-1" value="cache1" style="rounded=0;whiteSpace=wrap;html=1;" parent="1" vertex="1">
          <mxGeometry x="660" y="350" width="120" height="40" as="geometry" />
        </mxCell>
        <mxCell id="YZNdHFCtToBKcQ6RWs2M-13" value="" style="edgeStyle=orthogonalEdgeStyle;rounded=0;orthogonalLoop=1;jettySize=auto;html=1;" parent="1" source="YZNdHFCtToBKcQ6RWs2M-2" target="YZNdHFCtToBKcQ6RWs2M-10" edge="1">
          <mxGeometry relative="1" as="geometry" />
        </mxCell>
        <mxCell id="YZNdHFCtToBKcQ6RWs2M-2" value="cache2" style="rounded=0;whiteSpace=wrap;html=1;" parent="1" vertex="1">
          <mxGeometry x="660" y="410" width="120" height="40" as="geometry" />
        </mxCell>
        <mxCell id="YZNdHFCtToBKcQ6RWs2M-3" value="snode1" style="rounded=0;whiteSpace=wrap;html=1;" parent="1" vertex="1">
          <mxGeometry x="210" y="300" width="120" height="40" as="geometry" />
        </mxCell>
        <mxCell id="YZNdHFCtToBKcQ6RWs2M-4" value="snode2" style="rounded=0;whiteSpace=wrap;html=1;" parent="1" vertex="1">
          <mxGeometry x="210" y="380" width="120" height="40" as="geometry" />
        </mxCell>
        <mxCell id="iMfXWxvWurZU4nPIZbST-1" value="" style="edgeStyle=orthogonalEdgeStyle;rounded=0;orthogonalLoop=1;jettySize=auto;html=1;fontColor=default;exitX=0.5;exitY=1;exitDx=0;exitDy=0;strokeColor=default;labelBackgroundColor=default;" parent="1" source="YZNdHFCtToBKcQ6RWs2M-5" target="YZNdHFCtToBKcQ6RWs2M-10" edge="1">
          <mxGeometry relative="1" as="geometry" />
        </mxCell>
        <mxCell id="YZNdHFCtToBKcQ6RWs2M-5" value="snode3" style="rounded=0;whiteSpace=wrap;html=1;fillColor=default;strokeColor=default;fontColor=default;" parent="1" vertex="1">
          <mxGeometry x="210" y="460" width="120" height="40" as="geometry" />
        </mxCell>
        <mxCell id="YZNdHFCtToBKcQ6RWs2M-20" value="" style="edgeStyle=orthogonalEdgeStyle;rounded=0;orthogonalLoop=1;jettySize=auto;html=1;" parent="1" source="YZNdHFCtToBKcQ6RWs2M-10" target="YZNdHFCtToBKcQ6RWs2M-4" edge="1">
          <mxGeometry relative="1" as="geometry" />
        </mxCell>
        <mxCell id="YZNdHFCtToBKcQ6RWs2M-10" value="sardine" style="rounded=1;whiteSpace=wrap;html=1;fillColor=default;strokeColor=default;fontColor=default;" parent="1" vertex="1">
          <mxGeometry x="450" y="390" width="120" height="60" as="geometry" />
        </mxCell>
        <mxCell id="YZNdHFCtToBKcQ6RWs2M-19" value="" style="edgeStyle=orthogonalEdgeStyle;rounded=0;orthogonalLoop=1;jettySize=auto;html=1;" parent="1" source="YZNdHFCtToBKcQ6RWs2M-11" target="YZNdHFCtToBKcQ6RWs2M-17" edge="1">
          <mxGeometry relative="1" as="geometry" />
        </mxCell>
        <mxCell id="YZNdHFCtToBKcQ6RWs2M-23" value="" style="edgeStyle=orthogonalEdgeStyle;rounded=0;orthogonalLoop=1;jettySize=auto;html=1;" parent="1" source="YZNdHFCtToBKcQ6RWs2M-11" target="YZNdHFCtToBKcQ6RWs2M-10" edge="1">
          <mxGeometry relative="1" as="geometry" />
        </mxCell>
        <mxCell id="YZNdHFCtToBKcQ6RWs2M-11" value="日志" style="rounded=1;whiteSpace=wrap;html=1;" parent="1" vertex="1">
          <mxGeometry x="660" y="160" width="120" height="60" as="geometry" />
        </mxCell>
        <mxCell id="YZNdHFCtToBKcQ6RWs2M-17" value="" style="rounded=0;whiteSpace=wrap;html=1;fillColor=none;dashed=1;" parent="1" vertex="1">
          <mxGeometry x="600" y="310" width="240" height="170" as="geometry" />
        </mxCell>
        <mxCell id="YZNdHFCtToBKcQ6RWs2M-21" value="" style="endArrow=classic;html=1;entryX=1;entryY=1;entryDx=0;entryDy=0;exitX=0;exitY=0.25;exitDx=0;exitDy=0;" parent="1" source="YZNdHFCtToBKcQ6RWs2M-10" target="YZNdHFCtToBKcQ6RWs2M-3" edge="1">
          <mxGeometry width="50" height="50" relative="1" as="geometry">
            <mxPoint x="690" y="410" as="sourcePoint" />
            <mxPoint x="740" y="360" as="targetPoint" />
          </mxGeometry>
        </mxCell>
        <mxCell id="YZNdHFCtToBKcQ6RWs2M-22" value="" style="endArrow=classic;html=1;entryX=1;entryY=0;entryDx=0;entryDy=0;exitX=0;exitY=0.75;exitDx=0;exitDy=0;" parent="1" source="YZNdHFCtToBKcQ6RWs2M-10" target="YZNdHFCtToBKcQ6RWs2M-5" edge="1">
          <mxGeometry width="50" height="50" relative="1" as="geometry">
            <mxPoint x="470" y="395" as="sourcePoint" />
            <mxPoint x="420" y="350" as="targetPoint" />
          </mxGeometry>
        </mxCell>
        <mxCell id="YZNdHFCtToBKcQ6RWs2M-33" value="2.预热资源" style="text;html=1;align=center;verticalAlign=middle;resizable=0;points=[];autosize=1;strokeColor=none;fillColor=none;" parent="1" vertex="1">
          <mxGeometry x="350" y="380" width="70" height="20" as="geometry" />
        </mxCell>
        <mxCell id="YZNdHFCtToBKcQ6RWs2M-34" value="3.采集日志" style="text;html=1;align=center;verticalAlign=middle;resizable=0;points=[];autosize=1;strokeColor=none;fillColor=none;" parent="1" vertex="1">
          <mxGeometry x="720" y="250" width="70" height="20" as="geometry" />
        </mxCell>
        <mxCell id="YZNdHFCtToBKcQ6RWs2M-35" value="4.推送热点url" style="text;html=1;align=center;verticalAlign=middle;resizable=0;points=[];autosize=1;strokeColor=none;fillColor=none;" parent="1" vertex="1">
          <mxGeometry x="520" y="250" width="90" height="20" as="geometry" />
        </mxCell>
        <mxCell id="YZNdHFCtToBKcQ6RWs2M-36" value="1.查询状态信息，确认是否需要预热" style="text;html=1;align=center;verticalAlign=middle;resizable=0;points=[];autosize=1;strokeColor=none;fillColor=none;fontColor=default;" parent="1" vertex="1">
          <mxGeometry x="510" y="490" width="210" height="20" as="geometry" />
        </mxCell>
        <mxCell id="YZNdHFCtToBKcQ6RWs2M-37" value="5.预热日志冷资源" style="text;html=1;align=center;verticalAlign=middle;resizable=0;points=[];autosize=1;strokeColor=none;fillColor=none;fontColor=default;" parent="1" vertex="1">
          <mxGeometry x="350" y="460" width="110" height="20" as="geometry" />
        </mxCell>
        <mxCell id="YZNdHFCtToBKcQ6RWs2M-41" value="sardine" style="rounded=1;whiteSpace=wrap;html=1;fillColor=default;strokeColor=default;fontColor=default;" parent="1" vertex="1">
          <mxGeometry x="1325" y="760" width="120" height="60" as="geometry" />
        </mxCell>
        <mxCell id="YZNdHFCtToBKcQ6RWs2M-43" value="hot" style="shape=table;startSize=30;container=1;collapsible=0;childLayout=tableLayout;fontStyle=1;align=center;pointerEvents=1;dashed=1;fillColor=none;" parent="1" vertex="1">
          <mxGeometry x="1050" y="710" width="180" height="70" as="geometry" />
        </mxCell>
        <mxCell id="YZNdHFCtToBKcQ6RWs2M-48" value="" style="shape=partialRectangle;html=1;whiteSpace=wrap;collapsible=0;dropTarget=0;pointerEvents=0;fillColor=default;top=0;left=0;bottom=0;right=0;points=[[0,0.5],[1,0.5]];portConstraint=eastwest;strokeColor=default;fontColor=default;" parent="YZNdHFCtToBKcQ6RWs2M-43" vertex="1">
          <mxGeometry y="30" width="180" height="40" as="geometry" />
        </mxCell>
        <mxCell id="YZNdHFCtToBKcQ6RWs2M-49" value="url hash1" style="shape=partialRectangle;html=1;whiteSpace=wrap;connectable=0;fillColor=default;top=0;left=0;bottom=0;right=0;overflow=hidden;pointerEvents=1;strokeColor=default;fontColor=default;" parent="YZNdHFCtToBKcQ6RWs2M-48" vertex="1">
          <mxGeometry width="60" height="40" as="geometry">
            <mxRectangle width="60" height="40" as="alternateBounds" />
          </mxGeometry>
        </mxCell>
        <mxCell id="YZNdHFCtToBKcQ6RWs2M-50" value="&lt;span&gt;url hash2&lt;/span&gt;" style="shape=partialRectangle;html=1;whiteSpace=wrap;connectable=0;fillColor=default;top=0;left=0;bottom=0;right=0;overflow=hidden;pointerEvents=1;strokeColor=default;fontColor=default;" parent="YZNdHFCtToBKcQ6RWs2M-48" vertex="1">
          <mxGeometry x="60" width="60" height="40" as="geometry">
            <mxRectangle width="60" height="40" as="alternateBounds" />
          </mxGeometry>
        </mxCell>
        <mxCell id="YZNdHFCtToBKcQ6RWs2M-51" value="&lt;span&gt;url hash...&lt;/span&gt;" style="shape=partialRectangle;html=1;whiteSpace=wrap;connectable=0;fillColor=default;top=0;left=0;bottom=0;right=0;overflow=hidden;pointerEvents=1;strokeColor=default;fontColor=default;" parent="YZNdHFCtToBKcQ6RWs2M-48" vertex="1">
          <mxGeometry x="120" width="60" height="40" as="geometry">
            <mxRectangle width="60" height="40" as="alternateBounds" />
          </mxGeometry>
        </mxCell>
        <mxCell id="YZNdHFCtToBKcQ6RWs2M-68" value="warm" style="shape=table;startSize=30;container=1;collapsible=0;childLayout=tableLayout;fontStyle=1;align=center;pointerEvents=1;dashed=1;fillColor=default;strokeColor=default;fontColor=default;" parent="1" vertex="1">
          <mxGeometry x="1050" y="820" width="180" height="70" as="geometry" />
        </mxCell>
        <mxCell id="YZNdHFCtToBKcQ6RWs2M-69" value="" style="shape=partialRectangle;html=1;whiteSpace=wrap;collapsible=0;dropTarget=0;pointerEvents=0;fillColor=default;top=0;left=0;bottom=0;right=0;points=[[0,0.5],[1,0.5]];portConstraint=eastwest;strokeColor=default;fontColor=default;" parent="YZNdHFCtToBKcQ6RWs2M-68" vertex="1">
          <mxGeometry y="30" width="180" height="40" as="geometry" />
        </mxCell>
        <mxCell id="YZNdHFCtToBKcQ6RWs2M-70" value="url hash1" style="shape=partialRectangle;html=1;whiteSpace=wrap;connectable=0;fillColor=default;top=0;left=0;bottom=0;right=0;overflow=hidden;pointerEvents=1;strokeColor=default;fontColor=default;" parent="YZNdHFCtToBKcQ6RWs2M-69" vertex="1">
          <mxGeometry width="60" height="40" as="geometry">
            <mxRectangle width="60" height="40" as="alternateBounds" />
          </mxGeometry>
        </mxCell>
        <mxCell id="YZNdHFCtToBKcQ6RWs2M-71" value="&lt;span&gt;url hash2&lt;/span&gt;" style="shape=partialRectangle;html=1;whiteSpace=wrap;connectable=0;fillColor=default;top=0;left=0;bottom=0;right=0;overflow=hidden;pointerEvents=1;strokeColor=default;fontColor=default;" parent="YZNdHFCtToBKcQ6RWs2M-69" vertex="1">
          <mxGeometry x="60" width="60" height="40" as="geometry">
            <mxRectangle width="60" height="40" as="alternateBounds" />
          </mxGeometry>
        </mxCell>
        <mxCell id="YZNdHFCtToBKcQ6RWs2M-72" value="&lt;span&gt;url hash...&lt;/span&gt;" style="shape=partialRectangle;html=1;whiteSpace=wrap;connectable=0;fillColor=default;top=0;left=0;bottom=0;right=0;overflow=hidden;pointerEvents=1;strokeColor=default;fontColor=default;" parent="YZNdHFCtToBKcQ6RWs2M-69" vertex="1">
          <mxGeometry x="120" width="60" height="40" as="geometry">
            <mxRectangle width="60" height="40" as="alternateBounds" />
          </mxGeometry>
        </mxCell>
        <mxCell id="YZNdHFCtToBKcQ6RWs2M-73" value="sardine log" style="rounded=1;whiteSpace=wrap;html=1;fillColor=default;strokeColor=default;fontColor=default;" parent="1" vertex="1">
          <mxGeometry x="1535" y="760" width="120" height="60" as="geometry" />
        </mxCell>
        <mxCell id="YZNdHFCtToBKcQ6RWs2M-74" value="snode2" style="rounded=1;whiteSpace=wrap;html=1;fillColor=default;strokeColor=default;fontColor=default;" parent="1" vertex="1">
          <mxGeometry x="1325" y="1090" width="120" height="60" as="geometry" />
        </mxCell>
        <mxCell id="YZNdHFCtToBKcQ6RWs2M-78" value="预取任务列表" style="swimlane;fontStyle=0;childLayout=stackLayout;horizontal=1;startSize=30;horizontalStack=0;resizeParent=1;resizeParentMax=0;resizeLast=0;collapsible=1;marginBottom=0;dashed=1;fillColor=default;strokeColor=default;fontColor=default;" parent="1" vertex="1">
          <mxGeometry x="1315" y="900" width="140" height="120" as="geometry" />
        </mxCell>
        <mxCell id="YZNdHFCtToBKcQ6RWs2M-79" value="url1" style="text;strokeColor=default;fillColor=default;align=center;verticalAlign=middle;spacingLeft=4;spacingRight=4;overflow=hidden;points=[[0,0.5],[1,0.5]];portConstraint=eastwest;rotatable=0;fontColor=default;" parent="YZNdHFCtToBKcQ6RWs2M-78" vertex="1">
          <mxGeometry y="30" width="140" height="30" as="geometry" />
        </mxCell>
        <mxCell id="YZNdHFCtToBKcQ6RWs2M-80" value="url2" style="text;strokeColor=default;fillColor=default;align=center;verticalAlign=middle;spacingLeft=4;spacingRight=4;overflow=hidden;points=[[0,0.5],[1,0.5]];portConstraint=eastwest;rotatable=0;fontColor=default;" parent="YZNdHFCtToBKcQ6RWs2M-78" vertex="1">
          <mxGeometry y="60" width="140" height="30" as="geometry" />
        </mxCell>
        <mxCell id="YZNdHFCtToBKcQ6RWs2M-81" value="url 3" style="text;strokeColor=default;fillColor=default;align=center;verticalAlign=middle;spacingLeft=4;spacingRight=4;overflow=hidden;points=[[0,0.5],[1,0.5]];portConstraint=eastwest;rotatable=0;fontColor=default;" parent="YZNdHFCtToBKcQ6RWs2M-78" vertex="1">
          <mxGeometry y="90" width="140" height="30" as="geometry" />
        </mxCell>
        <mxCell id="YZNdHFCtToBKcQ6RWs2M-82" value="snode3" style="rounded=1;whiteSpace=wrap;html=1;fillColor=default;strokeColor=default;fontColor=default;" parent="1" vertex="1">
          <mxGeometry x="1455" y="1090" width="120" height="60" as="geometry" />
        </mxCell>
        <mxCell id="YZNdHFCtToBKcQ6RWs2M-83" value="snode1" style="rounded=1;whiteSpace=wrap;html=1;fillColor=default;strokeColor=default;fontColor=default;" parent="1" vertex="1">
          <mxGeometry x="1195" y="1090" width="120" height="60" as="geometry" />
        </mxCell>
        <mxCell id="YZNdHFCtToBKcQ6RWs2M-84" value="" style="endArrow=classic;startArrow=classic;html=1;exitX=1;exitY=0.5;exitDx=0;exitDy=0;entryX=0;entryY=0.25;entryDx=0;entryDy=0;fillColor=default;strokeColor=default;fontColor=default;" parent="1" source="YZNdHFCtToBKcQ6RWs2M-48" target="YZNdHFCtToBKcQ6RWs2M-41" edge="1">
          <mxGeometry width="50" height="50" relative="1" as="geometry">
            <mxPoint x="1325" y="970" as="sourcePoint" />
            <mxPoint x="1375" y="920" as="targetPoint" />
          </mxGeometry>
        </mxCell>
        <mxCell id="YZNdHFCtToBKcQ6RWs2M-85" value="" style="endArrow=classic;startArrow=classic;html=1;exitX=1;exitY=0.25;exitDx=0;exitDy=0;entryX=0;entryY=0.75;entryDx=0;entryDy=0;fillColor=default;strokeColor=default;fontColor=default;" parent="1" source="YZNdHFCtToBKcQ6RWs2M-68" target="YZNdHFCtToBKcQ6RWs2M-41" edge="1">
          <mxGeometry width="50" height="50" relative="1" as="geometry">
            <mxPoint x="1240" y="770" as="sourcePoint" />
            <mxPoint x="1335" y="785" as="targetPoint" />
          </mxGeometry>
        </mxCell>
        <mxCell id="YZNdHFCtToBKcQ6RWs2M-86" value="" style="endArrow=classic;startArrow=classic;html=1;exitX=1;exitY=0.5;exitDx=0;exitDy=0;entryX=0;entryY=0.5;entryDx=0;entryDy=0;fillColor=default;strokeColor=default;fontColor=default;" parent="1" source="YZNdHFCtToBKcQ6RWs2M-41" target="YZNdHFCtToBKcQ6RWs2M-73" edge="1">
          <mxGeometry width="50" height="50" relative="1" as="geometry">
            <mxPoint x="1440" y="792.5" as="sourcePoint" />
            <mxPoint x="1535" y="760" as="targetPoint" />
          </mxGeometry>
        </mxCell>
        <mxCell id="YZNdHFCtToBKcQ6RWs2M-87" value="" style="endArrow=classic;html=1;exitX=0.5;exitY=1;exitDx=0;exitDy=0;fillColor=default;strokeColor=default;fontColor=default;" parent="1" source="YZNdHFCtToBKcQ6RWs2M-41" target="YZNdHFCtToBKcQ6RWs2M-78" edge="1">
          <mxGeometry width="50" height="50" relative="1" as="geometry">
            <mxPoint x="1325" y="970" as="sourcePoint" />
            <mxPoint x="1375" y="920" as="targetPoint" />
          </mxGeometry>
        </mxCell>
        <mxCell id="YZNdHFCtToBKcQ6RWs2M-88" value="" style="endArrow=classic;html=1;exitX=0.217;exitY=0.978;exitDx=0;exitDy=0;exitPerimeter=0;entryX=0.5;entryY=0;entryDx=0;entryDy=0;fillColor=default;strokeColor=default;fontColor=default;" parent="1" source="YZNdHFCtToBKcQ6RWs2M-81" target="YZNdHFCtToBKcQ6RWs2M-83" edge="1">
          <mxGeometry width="50" height="50" relative="1" as="geometry">
            <mxPoint x="1325" y="970" as="sourcePoint" />
            <mxPoint x="1375" y="920" as="targetPoint" />
          </mxGeometry>
        </mxCell>
        <mxCell id="YZNdHFCtToBKcQ6RWs2M-89" value="" style="endArrow=classic;html=1;entryX=0.5;entryY=0;entryDx=0;entryDy=0;fillColor=default;strokeColor=default;fontColor=default;" parent="1" target="YZNdHFCtToBKcQ6RWs2M-74" edge="1">
          <mxGeometry width="50" height="50" relative="1" as="geometry">
            <mxPoint x="1385" y="1023" as="sourcePoint" />
            <mxPoint x="1255" y="1190" as="targetPoint" />
          </mxGeometry>
        </mxCell>
        <mxCell id="YZNdHFCtToBKcQ6RWs2M-90" value="" style="endArrow=classic;html=1;exitX=0.738;exitY=1.078;exitDx=0;exitDy=0;exitPerimeter=0;entryX=0.5;entryY=0;entryDx=0;entryDy=0;fillColor=default;strokeColor=default;fontColor=default;" parent="1" source="YZNdHFCtToBKcQ6RWs2M-81" target="YZNdHFCtToBKcQ6RWs2M-82" edge="1">
          <mxGeometry width="50" height="50" relative="1" as="geometry">
            <mxPoint x="1391.36" y="1093.33" as="sourcePoint" />
            <mxPoint x="1395" y="1190" as="targetPoint" />
          </mxGeometry>
        </mxCell>
        <mxCell id="YZNdHFCtToBKcQ6RWs2M-92" value="cache1" style="rounded=0;whiteSpace=wrap;html=1;" parent="1" vertex="1">
          <mxGeometry x="520" y="1240" width="120" height="40" as="geometry" />
        </mxCell>
        <mxCell id="YZNdHFCtToBKcQ6RWs2M-93" value="cache2" style="rounded=0;whiteSpace=wrap;html=1;" parent="1" vertex="1">
          <mxGeometry x="690" y="1240" width="120" height="40" as="geometry" />
        </mxCell>
        <mxCell id="YZNdHFCtToBKcQ6RWs2M-94" value="cache2" style="rounded=0;whiteSpace=wrap;html=1;" parent="1" vertex="1">
          <mxGeometry x="860" y="1240" width="120" height="40" as="geometry" />
        </mxCell>
        <mxCell id="YZNdHFCtToBKcQ6RWs2M-95" value="日志" style="rounded=1;whiteSpace=wrap;html=1;fillColor=none;align=center;strokeColor=default;fontColor=default;" parent="1" vertex="1">
          <mxGeometry x="80" y="1160" width="120" height="60" as="geometry" />
        </mxCell>
        <mxCell id="YZNdHFCtToBKcQ6RWs2M-96" value="" style="rounded=0;whiteSpace=wrap;html=1;dashed=1;fillColor=none;align=center;strokeColor=default;fontColor=default;" parent="1" vertex="1">
          <mxGeometry x="480" y="1200" width="530" height="370" as="geometry" />
        </mxCell>
        <mxCell id="YZNdHFCtToBKcQ6RWs2M-97" value="cache组" style="text;html=1;strokeColor=none;fillColor=none;align=center;verticalAlign=middle;whiteSpace=wrap;rounded=0;dashed=1;" parent="1" vertex="1">
          <mxGeometry x="515" y="1190" width="55" height="20" as="geometry" />
        </mxCell>
        <mxCell id="JYe9eP7PhJ8uqK1dIbzq-8" value="" style="edgeStyle=orthogonalEdgeStyle;rounded=0;orthogonalLoop=1;jettySize=auto;html=1;labelBackgroundColor=default;fontColor=default;strokeColor=default;" edge="1" parent="1" source="YZNdHFCtToBKcQ6RWs2M-98" target="YZNdHFCtToBKcQ6RWs2M-95">
          <mxGeometry relative="1" as="geometry" />
        </mxCell>
        <mxCell id="YZNdHFCtToBKcQ6RWs2M-98" value="sardine" style="rounded=0;whiteSpace=wrap;html=1;fillColor=default;strokeColor=default;" parent="1" vertex="1">
          <mxGeometry x="690" y="1320" width="120" height="40" as="geometry" />
        </mxCell>
        <mxCell id="YZNdHFCtToBKcQ6RWs2M-101" value="1.收集cache组日志，计算热点文件" style="text;html=1;align=center;verticalAlign=middle;resizable=0;points=[];autosize=1;strokeColor=none;fillColor=none;fontColor=default;" parent="1" vertex="1">
          <mxGeometry x="220" y="1280" width="200" height="20" as="geometry" />
        </mxCell>
        <mxCell id="YZNdHFCtToBKcQ6RWs2M-102" value="snode2" style="rounded=1;whiteSpace=wrap;html=1;" parent="1" vertex="1">
          <mxGeometry x="700" y="1670" width="120" height="60" as="geometry" />
        </mxCell>
        <mxCell id="YZNdHFCtToBKcQ6RWs2M-103" value="预取任务列表" style="swimlane;fontStyle=0;childLayout=stackLayout;horizontal=1;startSize=30;horizontalStack=0;resizeParent=1;resizeParentMax=0;resizeLast=0;collapsible=1;marginBottom=0;dashed=1;fillColor=none;" parent="1" vertex="1">
          <mxGeometry x="690" y="1400" width="140" height="120" as="geometry" />
        </mxCell>
        <mxCell id="YZNdHFCtToBKcQ6RWs2M-104" value="url1" style="text;strokeColor=none;fillColor=none;align=center;verticalAlign=middle;spacingLeft=4;spacingRight=4;overflow=hidden;points=[[0,0.5],[1,0.5]];portConstraint=eastwest;rotatable=0;" parent="YZNdHFCtToBKcQ6RWs2M-103" vertex="1">
          <mxGeometry y="30" width="140" height="30" as="geometry" />
        </mxCell>
        <mxCell id="YZNdHFCtToBKcQ6RWs2M-105" value="url2" style="text;strokeColor=none;fillColor=none;align=center;verticalAlign=middle;spacingLeft=4;spacingRight=4;overflow=hidden;points=[[0,0.5],[1,0.5]];portConstraint=eastwest;rotatable=0;" parent="YZNdHFCtToBKcQ6RWs2M-103" vertex="1">
          <mxGeometry y="60" width="140" height="30" as="geometry" />
        </mxCell>
        <mxCell id="YZNdHFCtToBKcQ6RWs2M-106" value="url 3" style="text;strokeColor=none;fillColor=none;align=center;verticalAlign=middle;spacingLeft=4;spacingRight=4;overflow=hidden;points=[[0,0.5],[1,0.5]];portConstraint=eastwest;rotatable=0;" parent="YZNdHFCtToBKcQ6RWs2M-103" vertex="1">
          <mxGeometry y="90" width="140" height="30" as="geometry" />
        </mxCell>
        <mxCell id="YZNdHFCtToBKcQ6RWs2M-107" value="snode3" style="rounded=1;whiteSpace=wrap;html=1;" parent="1" vertex="1">
          <mxGeometry x="830" y="1670" width="120" height="60" as="geometry" />
        </mxCell>
        <mxCell id="YZNdHFCtToBKcQ6RWs2M-108" value="" style="endArrow=classic;html=1;exitX=0.217;exitY=0.978;exitDx=0;exitDy=0;exitPerimeter=0;entryX=0.5;entryY=0;entryDx=0;entryDy=0;" parent="1" source="YZNdHFCtToBKcQ6RWs2M-106" edge="1">
          <mxGeometry width="50" height="50" relative="1" as="geometry">
            <mxPoint x="700" y="1550" as="sourcePoint" />
            <mxPoint x="630" y="1670" as="targetPoint" />
          </mxGeometry>
        </mxCell>
        <mxCell id="YZNdHFCtToBKcQ6RWs2M-109" value="" style="endArrow=classic;html=1;entryX=0.5;entryY=0;entryDx=0;entryDy=0;exitX=0.486;exitY=1.144;exitDx=0;exitDy=0;exitPerimeter=0;" parent="1" source="YZNdHFCtToBKcQ6RWs2M-106" target="YZNdHFCtToBKcQ6RWs2M-102" edge="1">
          <mxGeometry width="50" height="50" relative="1" as="geometry">
            <mxPoint x="760" y="1603" as="sourcePoint" />
            <mxPoint x="630" y="1770" as="targetPoint" />
          </mxGeometry>
        </mxCell>
        <mxCell id="YZNdHFCtToBKcQ6RWs2M-110" value="" style="endArrow=classic;html=1;exitX=0.738;exitY=1.078;exitDx=0;exitDy=0;exitPerimeter=0;entryX=0.5;entryY=0;entryDx=0;entryDy=0;" parent="1" source="YZNdHFCtToBKcQ6RWs2M-106" target="YZNdHFCtToBKcQ6RWs2M-107" edge="1">
          <mxGeometry width="50" height="50" relative="1" as="geometry">
            <mxPoint x="766.3599999999999" y="1673.33" as="sourcePoint" />
            <mxPoint x="770" y="1770" as="targetPoint" />
          </mxGeometry>
        </mxCell>
        <mxCell id="YZNdHFCtToBKcQ6RWs2M-111" value="snode1" style="rounded=1;whiteSpace=wrap;html=1;" parent="1" vertex="1">
          <mxGeometry x="570" y="1670" width="120" height="60" as="geometry" />
        </mxCell>
        <mxCell id="YZNdHFCtToBKcQ6RWs2M-112" value="" style="endArrow=classic;startArrow=classic;html=1;exitX=1;exitY=1;exitDx=0;exitDy=0;entryX=0;entryY=0.25;entryDx=0;entryDy=0;strokeColor=default;labelBackgroundColor=default;fontColor=default;" parent="1" source="YZNdHFCtToBKcQ6RWs2M-95" target="YZNdHFCtToBKcQ6RWs2M-96" edge="1">
          <mxGeometry width="50" height="50" relative="1" as="geometry">
            <mxPoint x="820" y="1490" as="sourcePoint" />
            <mxPoint x="870" y="1440" as="targetPoint" />
          </mxGeometry>
        </mxCell>
        <mxCell id="YZNdHFCtToBKcQ6RWs2M-113" value="" style="endArrow=classic;html=1;exitX=1;exitY=0.5;exitDx=0;exitDy=0;" parent="1" source="YZNdHFCtToBKcQ6RWs2M-95" target="YZNdHFCtToBKcQ6RWs2M-114" edge="1">
          <mxGeometry width="50" height="50" relative="1" as="geometry">
            <mxPoint x="770" y="1470" as="sourcePoint" />
            <mxPoint x="690" y="1410" as="targetPoint" />
          </mxGeometry>
        </mxCell>
        <mxCell id="YZNdHFCtToBKcQ6RWs2M-114" value="" style="rounded=0;whiteSpace=wrap;html=1;fillColor=none;align=center;dashed=1;strokeColor=default;fontColor=default;" parent="1" vertex="1">
          <mxGeometry x="675" y="1230" width="150" height="160" as="geometry" />
        </mxCell>
        <mxCell id="YZNdHFCtToBKcQ6RWs2M-117" value="" style="endArrow=classic;html=1;exitX=0.561;exitY=1.025;exitDx=0;exitDy=0;exitPerimeter=0;entryX=0.5;entryY=0;entryDx=0;entryDy=0;" parent="1" source="YZNdHFCtToBKcQ6RWs2M-98" target="YZNdHFCtToBKcQ6RWs2M-103" edge="1">
          <mxGeometry width="50" height="50" relative="1" as="geometry">
            <mxPoint x="770" y="1470" as="sourcePoint" />
            <mxPoint x="820" y="1420" as="targetPoint" />
          </mxGeometry>
        </mxCell>
        <mxCell id="YZNdHFCtToBKcQ6RWs2M-119" value="&lt;h1&gt;&lt;span style=&quot;font-size: 12px ; font-weight: 400&quot;&gt;4.下发预取任务列表到sardine所在机器，sardine读取任务数据生成相应的预取任务列表&lt;/span&gt;&lt;br&gt;&lt;/h1&gt;" style="text;html=1;strokeColor=none;fillColor=none;spacing=5;spacingTop=-20;whiteSpace=wrap;overflow=hidden;rounded=0;dashed=1;align=center;fontColor=default;" parent="1" vertex="1">
          <mxGeometry x="260" y="1110" width="175" height="100" as="geometry" />
        </mxCell>
        <mxCell id="iMfXWxvWurZU4nPIZbST-2" value="6.状态码反馈：200、210" style="text;html=1;align=center;verticalAlign=middle;resizable=0;points=[];autosize=1;strokeColor=none;fillColor=none;fontColor=default;" parent="1" vertex="1">
          <mxGeometry x="310" y="540" width="150" height="20" as="geometry" />
        </mxCell>
        <mxCell id="iMfXWxvWurZU4nPIZbST-3" value="预热状态" style="swimlane;fontStyle=0;childLayout=stackLayout;horizontal=1;startSize=30;horizontalStack=0;resizeParent=1;resizeParentMax=0;resizeLast=0;collapsible=1;marginBottom=0;fontColor=default;strokeColor=default;fillColor=default;align=center;" parent="1" vertex="1">
          <mxGeometry x="600" y="520" width="270" height="120" as="geometry" />
        </mxCell>
        <mxCell id="iMfXWxvWurZU4nPIZbST-4" value="snode1: plan-&gt;100, current-&gt;50,status-&gt;doing " style="text;strokeColor=none;fillColor=none;align=center;verticalAlign=middle;spacingLeft=4;spacingRight=4;overflow=hidden;points=[[0,0.5],[1,0.5]];portConstraint=eastwest;rotatable=0;fontColor=default;" parent="iMfXWxvWurZU4nPIZbST-3" vertex="1">
          <mxGeometry y="30" width="270" height="30" as="geometry" />
        </mxCell>
        <mxCell id="iMfXWxvWurZU4nPIZbST-5" value="snode2: plan-&gt;100, current-&gt;100 , status-&gt;done" style="text;strokeColor=none;fillColor=none;align=center;verticalAlign=middle;spacingLeft=4;spacingRight=4;overflow=hidden;points=[[0,0.5],[1,0.5]];portConstraint=eastwest;rotatable=0;fontColor=default;" parent="iMfXWxvWurZU4nPIZbST-3" vertex="1">
          <mxGeometry y="60" width="270" height="30" as="geometry" />
        </mxCell>
        <mxCell id="iMfXWxvWurZU4nPIZbST-6" value="snod31: plan-&gt;100, current-&gt;90 , status-&gt;done" style="text;strokeColor=none;fillColor=none;align=center;verticalAlign=middle;spacingLeft=4;spacingRight=4;overflow=hidden;points=[[0,0.5],[1,0.5]];portConstraint=eastwest;rotatable=0;fontColor=default;" parent="iMfXWxvWurZU4nPIZbST-3" vertex="1">
          <mxGeometry y="90" width="270" height="30" as="geometry" />
        </mxCell>
        <mxCell id="iMfXWxvWurZU4nPIZbST-7" value="" style="endArrow=classic;startArrow=classic;html=1;rounded=0;labelBackgroundColor=default;fontColor=default;strokeColor=default;fillColor=default;exitX=0.947;exitY=1.011;exitDx=0;exitDy=0;exitPerimeter=0;entryX=0;entryY=0;entryDx=0;entryDy=0;" parent="1" source="YZNdHFCtToBKcQ6RWs2M-10" target="iMfXWxvWurZU4nPIZbST-3" edge="1">
          <mxGeometry width="50" height="50" relative="1" as="geometry">
            <mxPoint x="900" y="480" as="sourcePoint" />
            <mxPoint x="950" y="430" as="targetPoint" />
          </mxGeometry>
        </mxCell>
        <mxCell id="JYe9eP7PhJ8uqK1dIbzq-2" value="" style="endArrow=classic;html=1;rounded=0;labelBackgroundColor=default;fontColor=default;strokeColor=default;entryX=0;entryY=1;entryDx=0;entryDy=0;exitX=0.25;exitY=0;exitDx=0;exitDy=0;" edge="1" parent="1" source="YZNdHFCtToBKcQ6RWs2M-111" target="YZNdHFCtToBKcQ6RWs2M-98">
          <mxGeometry width="50" height="50" relative="1" as="geometry">
            <mxPoint x="700" y="1440" as="sourcePoint" />
            <mxPoint x="750" y="1390" as="targetPoint" />
          </mxGeometry>
        </mxCell>
        <mxCell id="JYe9eP7PhJ8uqK1dIbzq-6" value="2.反馈预热状态信息" style="text;html=1;align=center;verticalAlign=middle;resizable=0;points=[];autosize=1;strokeColor=none;fillColor=none;fontColor=default;" vertex="1" parent="1">
          <mxGeometry x="510" y="1590" width="120" height="20" as="geometry" />
        </mxCell>
        <mxCell id="JYe9eP7PhJ8uqK1dIbzq-10" value="3.通知需要拉取多少资源" style="text;html=1;align=center;verticalAlign=middle;resizable=0;points=[];autosize=1;strokeColor=none;fillColor=none;fontColor=default;" vertex="1" parent="1">
          <mxGeometry x="245" y="1360" width="150" height="20" as="geometry" />
        </mxCell>
        <mxCell id="JYe9eP7PhJ8uqK1dIbzq-11" value="5.下发预热任务" style="text;html=1;align=center;verticalAlign=middle;resizable=0;points=[];autosize=1;strokeColor=none;fillColor=none;fontColor=default;" vertex="1" parent="1">
          <mxGeometry x="754" y="1600" width="100" height="20" as="geometry" />
        </mxCell>
        <mxCell id="JYe9eP7PhJ8uqK1dIbzq-12" value="" style="endArrow=classic;startArrow=classic;html=1;rounded=0;labelBackgroundColor=default;fontColor=default;strokeColor=default;fillColor=default;entryX=0;entryY=1;entryDx=0;entryDy=0;exitX=0.25;exitY=0;exitDx=0;exitDy=0;" edge="1" parent="1" source="YZNdHFCtToBKcQ6RWs2M-83" target="YZNdHFCtToBKcQ6RWs2M-41">
          <mxGeometry width="50" height="50" relative="1" as="geometry">
            <mxPoint x="1480" y="940" as="sourcePoint" />
            <mxPoint x="1530" y="890" as="targetPoint" />
          </mxGeometry>
        </mxCell>
        <mxCell id="JYe9eP7PhJ8uqK1dIbzq-13" value="查询是否需要预热（次热）" style="text;html=1;align=center;verticalAlign=middle;resizable=0;points=[];autosize=1;strokeColor=none;fillColor=none;fontColor=default;" vertex="1" parent="1">
          <mxGeometry x="1105" y="950" width="160" height="20" as="geometry" />
        </mxCell>
      </root>
    </mxGraphModel>
  </diagram>
</mxfile>
